<svg width="420" height="86" viewBox="0 0 420 86" fill="none" xmlns="http://www.w3.org/2000/svg">
<path d="M93.48 55.6801C92.76 61.9201 90.56 67.2401 86.88 71.6401C83.2 76.0401 78.2 79.4001 71.88 81.7201C65.56 84.0401 58.04 85.2001 49.32 85.2001C42.04 85.2001 35.36 84.3601 29.28 82.6801C23.28 81.0001 18.08 78.4801 13.68 75.1201C9.36 71.7601 6 67.6001 3.6 62.6401C1.2 57.6001 -2.38419e-07 51.7201 -2.38419e-07 45.0001C-2.38419e-07 38.2801 1.2 32.4001 3.6 27.3601C6 22.3201 9.36 18.1201 13.68 14.7601C18.08 11.3201 23.28 8.76013 29.28 7.08014C35.36 5.32013 42.04 4.44013 49.32 4.44013C58.04 4.44013 65.56 5.64013 71.88 8.04013C78.28 10.4401 83.32 13.8801 87 18.3601C90.68 22.7601 92.84 28.1201 93.48 34.4401H77.64C76.6 31.0801 74.84 28.2001 72.36 25.8001C69.96 23.3201 66.84 21.4401 63 20.1601C59.16 18.8801 54.6 18.2401 49.32 18.2401C42.76 18.2401 37 19.2801 32.04 21.3601C27.08 23.3601 23.24 26.3601 20.52 30.3601C17.8 34.2801 16.44 39.1601 16.44 45.0001C16.44 50.7601 17.8 55.6001 20.52 59.5201C23.24 63.4401 27.08 66.4401 32.04 68.5201C37 70.5201 42.76 71.5201 49.32 71.5201C54.6 71.5201 59.12 70.8801 62.88 69.6001C66.72 68.3201 69.84 66.4801 72.24 64.0801C74.72 61.6801 76.52 58.8801 77.64 55.6801H93.48ZM136.172 85.0801C128.652 85.0801 122.012 83.8801 116.252 81.4801C110.572 79.0801 106.132 75.6001 102.932 71.0401C99.7319 66.4001 98.1319 60.7201 98.1319 54.0001C98.1319 47.2801 99.7319 41.6001 102.932 36.9601C106.132 32.2401 110.572 28.6801 116.252 26.2801C122.012 23.8801 128.652 22.6801 136.172 22.6801C143.692 22.6801 150.252 23.8801 155.852 26.2801C161.532 28.6801 165.972 32.2401 169.172 36.9601C172.372 41.6001 173.972 47.2801 173.972 54.0001C173.972 60.7201 172.372 66.4001 169.172 71.0401C165.972 75.6001 161.532 79.0801 155.852 81.4801C150.252 83.8801 143.692 85.0801 136.172 85.0801ZM136.172 73.0801C140.332 73.0801 144.052 72.3601 147.332 70.9201C150.692 69.4001 153.332 67.2401 155.252 64.4401C157.172 61.5601 158.132 58.0801 158.132 54.0001C158.132 49.9201 157.172 46.4401 155.252 43.5601C153.332 40.6001 150.732 38.3601 147.452 36.8401C144.172 35.3201 140.412 34.5601 136.172 34.5601C132.012 34.5601 128.252 35.3201 124.892 36.8401C121.532 38.3601 118.852 40.5601 116.852 43.4401C114.932 46.3201 113.972 49.8401 113.972 54.0001C113.972 58.0801 114.932 61.5601 116.852 64.4401C118.772 67.2401 121.412 69.4001 124.772 70.9201C128.132 72.3601 131.932 73.0801 136.172 73.0801ZM208.544 84.9601C202.544 84.9601 197.104 83.6801 192.224 81.1201C187.424 78.4801 183.624 74.8401 180.824 70.2001C178.024 65.4801 176.624 60.0401 176.624 53.8801C176.624 47.5601 177.984 42.0801 180.704 37.4401C183.504 32.8001 187.304 29.2001 192.104 26.6401C196.904 24.0001 202.384 22.6801 208.544 22.6801C213.904 22.6801 218.464 23.4801 222.224 25.0801C225.984 26.6801 229.024 28.9201 231.344 31.8001C233.664 34.6001 235.344 37.8801 236.384 41.6401C237.504 45.4001 238.064 49.4801 238.064 53.8801C238.064 57.4001 237.504 61.0001 236.384 64.6801C235.264 68.2801 233.544 71.6401 231.224 74.7601C228.904 77.8001 225.864 80.2801 222.104 82.2001C218.344 84.0401 213.824 84.9601 208.544 84.9601ZM213.584 72.9601C218.304 72.9601 222.384 72.1601 225.824 70.5601C229.264 68.9601 231.904 66.7201 233.744 63.8401C235.584 60.9601 236.504 57.6401 236.504 53.8801C236.504 49.8001 235.544 46.3601 233.624 43.5601C231.784 40.6801 229.144 38.4801 225.704 36.9601C222.344 35.4401 218.304 34.6801 213.584 34.6801C206.944 34.6801 201.784 36.4401 198.104 39.9601C194.424 43.4801 192.584 48.1201 192.584 53.8801C192.584 57.7201 193.464 61.0801 195.224 63.9601C196.984 66.7601 199.424 68.9601 202.544 70.5601C205.744 72.1601 209.424 72.9601 213.584 72.9601ZM236.504 0.000133514H252.104V83.6401H237.584C237.344 81.8001 237.104 79.4401 236.864 76.5601C236.624 73.6001 236.504 70.8401 236.504 68.2801V0.000133514ZM317.278 63.8401H332.398C331.758 67.9201 330.038 71.5601 327.238 74.7601C324.518 77.9601 320.798 80.4801 316.078 82.3201C311.358 84.1601 305.598 85.0801 298.798 85.0801C291.198 85.0801 284.478 83.8801 278.638 81.4801C272.798 79.0001 268.238 75.4401 264.958 70.8001C261.678 66.1601 260.038 60.5601 260.038 54.0001C260.038 47.4401 261.638 41.8401 264.838 37.2001C268.038 32.4801 272.478 28.8801 278.158 26.4001C283.918 23.9201 290.638 22.6801 298.318 22.6801C306.158 22.6801 312.678 23.9201 317.878 26.4001C323.078 28.8801 326.918 32.6401 329.398 37.6801C331.958 42.6401 333.038 49.0001 332.638 56.7601H275.758C276.158 59.8001 277.278 62.5601 279.118 65.0401C281.038 67.5201 283.598 69.4801 286.798 70.9201C290.078 72.3601 293.958 73.0801 298.438 73.0801C303.398 73.0801 307.518 72.2401 310.798 70.5601C314.158 68.8001 316.318 66.5601 317.278 63.8401ZM297.598 34.5601C291.838 34.5601 287.158 35.8401 283.558 38.4001C279.958 40.8801 277.638 43.9601 276.598 47.6401H317.158C316.758 43.6401 314.838 40.4801 311.398 38.1601C308.038 35.7601 303.438 34.5601 297.598 34.5601Z" fill="white"/>
<path d="M400.166 6.00013H419.606L382.886 48.8401L382.406 49.3201L355.166 83.6401H335.726L373.526 38.6401L373.886 38.2801L400.166 6.00013ZM356.366 6.00013L382.286 38.5201L382.526 38.8801L419.966 83.6401H399.686L372.806 48.8401L372.446 48.6001L336.926 6.00013H356.366Z" fill="#1DD3B0"/>
</svg>
